<svg width="365" height="44" viewBox="0 0 365 44" fill="none" xmlns="http://www.w3.org/2000/svg">
<rect x="8.89476" y="11.7065" width="14.981" height="3.74524" rx="1.87262" fill="white" stroke="white" stroke-width="0.936311"/>
<rect x="0.468156" y="18.265" width="14.981" height="3.74524" rx="1.87262" fill="white" stroke="white" stroke-width="0.936311"/>
<rect x="5.14882" y="26.6908" width="18.7262" height="3.74524" rx="1.87262" fill="white" stroke="white" stroke-width="0.936311"/>
<path d="M26.2168 40.7295C26.2168 42.0223 25.1687 43.0703 23.876 43.0703C22.5832 43.0703 21.5352 42.0223 21.5352 40.7295V35.5771H26.2168V40.7295ZM23.876 0C25.1687 2.29352e-05 26.2168 1.04806 26.2168 2.34082V7.48828H21.5352V2.34082C21.5352 1.04804 22.5832 0 23.876 0Z" fill="white"/>
<path d="M14.9814 6.09588C31.835 4.68865 33.7076 7.49718 34.1758 12.6535C34.6002 17.3285 29.7562 20.1403 25.749 20.1403C31.3668 20.1403 39.1437 20.1666 38.3892 29.9716C38.1172 33.5059 35.6328 35.4628 33.5986 36.4823C31.8849 37.3411 29.939 37.4773 28.0222 37.4942C23.9232 37.5302 16.4748 37.5744 12.6406 37.4649" stroke="white" stroke-width="4.68155" stroke-linecap="round" stroke-linejoin="round"/>
<path d="M60.6371 19.1791L58.1668 21.6484L60.6371 24.1178C60.7068 24.1875 60.762 24.2702 60.7997 24.3613C60.8375 24.4523 60.8569 24.5499 60.8569 24.6484C60.8569 24.747 60.8375 24.8446 60.7997 24.9356C60.762 25.0267 60.7068 25.1094 60.6371 25.1791C60.5674 25.2487 60.4847 25.304 60.3936 25.3417C60.3026 25.3794 60.205 25.3989 60.1064 25.3989C60.0079 25.3989 59.9103 25.3794 59.8193 25.3417C59.7282 25.304 59.6455 25.2487 59.5758 25.1791L57.1064 22.7087L54.6371 25.1791C54.5674 25.2487 54.4847 25.304 54.3936 25.3417C54.3026 25.3794 54.205 25.3989 54.1064 25.3989C54.0079 25.3989 53.9103 25.3794 53.8193 25.3417C53.7282 25.304 53.6455 25.2487 53.5758 25.1791C53.5061 25.1094 53.4509 25.0267 53.4132 24.9356C53.3754 24.8446 53.356 24.747 53.356 24.6484C53.356 24.5499 53.3754 24.4523 53.4132 24.3613C53.4509 24.2702 53.5061 24.1875 53.5758 24.1178L56.0461 21.6484L53.5758 19.1791C53.4351 19.0383 53.356 18.8475 53.356 18.6484C53.356 18.4494 53.4351 18.2585 53.5758 18.1178C53.7166 17.9771 53.9074 17.898 54.1064 17.898C54.3055 17.898 54.4963 17.9771 54.6371 18.1178L57.1064 20.5881L59.5758 18.1178C59.6455 18.0481 59.7282 17.9929 59.8193 17.9551C59.9103 17.9174 60.0079 17.898 60.1064 17.898C60.205 17.898 60.3026 17.9174 60.3936 17.9551C60.4847 17.9929 60.5674 18.0481 60.6371 18.1178C60.7068 18.1875 60.762 18.2702 60.7997 18.3613C60.8375 18.4523 60.8569 18.5499 60.8569 18.6484C60.8569 18.747 60.8375 18.8446 60.7997 18.9356C60.762 19.0267 60.7068 19.1094 60.6371 19.1791ZM66.8564 21.6484C66.8564 23.5768 66.2846 25.4619 65.2133 27.0652C64.1419 28.6686 62.6192 29.9183 60.8376 30.6563C59.056 31.3942 57.0956 31.5873 55.2043 31.2111C53.313 30.8349 51.5757 29.9063 50.2122 28.5427C48.8486 27.1792 47.92 25.4419 47.5438 23.5506C47.1676 21.6593 47.3607 19.6989 48.0986 17.9173C48.8366 16.1357 50.0863 14.613 51.6896 13.5416C53.293 12.4703 55.1781 11.8984 57.1064 11.8984C59.6915 11.9012 62.1698 12.9293 63.9977 14.7572C65.8256 16.585 66.8537 19.0634 66.8564 21.6484ZM65.3564 21.6484C65.3564 20.0167 64.8726 18.4217 63.9661 17.065C63.0596 15.7083 61.7711 14.6509 60.2636 14.0264C58.7561 13.402 57.0973 13.2386 55.497 13.557C53.8966 13.8753 52.4266 14.661 51.2728 15.8148C50.119 16.9686 49.3333 18.4386 49.015 20.0389C48.6966 21.6393 48.86 23.2981 49.4844 24.8056C50.1089 26.3131 51.1663 27.6015 52.523 28.5081C53.8797 29.4146 55.4748 29.8984 57.1064 29.8984C59.2937 29.896 61.3907 29.026 62.9373 27.4793C64.484 25.9327 65.354 23.8357 65.3564 21.6484Z" fill="white"/>
<g clip-path="url(#clip0_4987_34591)">
<path d="M84.8407 27.7564L99.4676 27.7564C107.053 27.7564 113.202 21.6074 113.202 14.0222C113.202 6.43699 107.053 0.287979 99.4676 0.287979L84.8407 0.287979C77.2554 0.287979 71.1062 6.43699 71.1062 14.0222C71.1062 21.6074 77.2554 27.7564 84.8407 27.7564Z" fill="white"/>
<path d="M113.202 29.2747V14.0222C113.202 6.43679 107.053 0.287628 99.4679 0.287628C91.8828 0.287628 85.7337 6.43679 85.7337 14.0222V29.2747C85.7337 36.8601 91.8828 43.0092 99.4679 43.0092C107.053 43.0092 113.202 36.8601 113.202 29.2747Z" fill="white"/>
<path d="M85.7341 14.0212C85.7341 21.6068 91.883 27.7557 99.4679 27.7557C106.976 27.7557 113.077 21.7314 113.2 14.2521C113.326 6.61817 107.277 0.383906 99.6429 0.288727C95.7811 0.240437 92.2798 1.7871 89.7561 4.31006C87.271 6.79523 85.7334 10.2287 85.7334 14.0212H85.7341Z" fill="#0F0F0F"/>
</g>
<path d="M130.451 20.4024C128.772 20.4024 127.294 20.031 126.019 19.2882C124.743 18.5455 123.742 17.5201 123.015 16.2122C122.305 14.9043 121.95 13.3784 121.95 11.6345C121.95 9.90682 122.305 8.389 123.015 7.08109C123.742 5.75704 124.743 4.72363 126.019 3.98087C127.294 3.23811 128.772 2.86673 130.451 2.86673C132.147 2.86673 133.624 3.23811 134.883 3.98087C136.159 4.72363 137.152 5.75704 137.863 7.08109C138.589 8.389 138.952 9.90682 138.952 11.6345C138.952 13.3784 138.589 14.9043 137.863 16.2122C137.152 17.5201 136.159 18.5455 134.883 19.2882C133.624 20.031 132.147 20.4024 130.451 20.4024ZM130.475 17.5686C131.541 17.5686 132.469 17.3344 133.261 16.8662C134.052 16.3818 134.665 15.6955 135.101 14.8074C135.537 13.9193 135.755 12.8617 135.755 11.6345C135.755 10.4074 135.537 9.34974 135.101 8.46166C134.665 7.57358 134.052 6.8954 133.261 6.42714C132.469 5.94273 131.541 5.70053 130.475 5.70053C129.41 5.70053 128.473 5.94273 127.666 6.42714C126.875 6.8954 126.261 7.57358 125.825 8.46166C125.389 9.34974 125.171 10.4074 125.171 11.6345C125.171 12.8617 125.389 13.9193 125.825 14.8074C126.261 15.6955 126.875 16.3818 127.666 16.8662C128.473 17.3344 129.41 17.5686 130.475 17.5686ZM140.158 20.1117V3.15738H146.479C147.836 3.15738 148.958 3.38343 149.846 3.83555C150.734 4.28766 151.396 4.90932 151.832 5.70053C152.284 6.49173 152.51 7.38789 152.51 8.389C152.51 9.29323 152.292 10.1409 151.856 10.9321C151.436 11.7234 150.783 12.3612 149.894 12.8456C149.006 13.33 147.868 13.5722 146.479 13.5722H143.306V20.1117H140.158ZM143.306 11.029H146.286C147.351 11.029 148.118 10.7949 148.587 10.3266C149.071 9.84223 149.313 9.19635 149.313 8.389C149.313 7.54936 149.071 6.8954 148.587 6.42714C148.118 5.95888 147.351 5.72475 146.286 5.72475H143.306V11.029ZM153.718 20.1117V3.15738H156.867L164.787 15.0254V3.15738H167.935V20.1117H164.787L156.867 8.2679V20.1117H153.718ZM177.682 20.4024C176.003 20.4024 174.525 20.031 173.25 19.2882C171.974 18.5455 170.973 17.5201 170.246 16.2122C169.536 14.9043 169.181 13.3784 169.181 11.6345C169.181 9.90682 169.536 8.389 170.246 7.08109C170.973 5.75704 171.974 4.72363 173.25 3.98087C174.525 3.23811 176.003 2.86673 177.682 2.86673C179.377 2.86673 180.855 3.23811 182.114 3.98087C183.39 4.72363 184.383 5.75704 185.093 7.08109C185.82 8.389 186.183 9.90682 186.183 11.6345C186.183 13.3784 185.82 14.9043 185.093 16.2122C184.383 17.5201 183.39 18.5455 182.114 19.2882C180.855 20.031 179.377 20.4024 177.682 20.4024ZM177.706 17.5686C178.772 17.5686 179.7 17.3344 180.492 16.8662C181.283 16.3818 181.896 15.6955 182.332 14.8074C182.768 13.9193 182.986 12.8617 182.986 11.6345C182.986 10.4074 182.768 9.34974 182.332 8.46166C181.896 7.57358 181.283 6.8954 180.492 6.42714C179.7 5.94273 178.772 5.70053 177.706 5.70053C176.64 5.70053 175.704 5.94273 174.897 6.42714C174.105 6.8954 173.492 7.57358 173.056 8.46166C172.62 9.34974 172.402 10.4074 172.402 11.6345C172.402 12.8617 172.62 13.9193 173.056 14.8074C173.492 15.6955 174.105 16.3818 174.897 16.8662C175.704 17.3344 176.64 17.5686 177.706 17.5686ZM187.389 20.1117V3.15738H193.226C195.212 3.15738 196.843 3.51261 198.118 4.22308C199.41 4.9174 200.363 5.90236 200.976 7.17797C201.606 8.43744 201.921 9.92296 201.921 11.6345C201.921 13.3461 201.606 14.8397 200.976 16.1153C200.363 17.3748 199.41 18.3598 198.118 19.0702C196.843 19.7645 195.212 20.1117 193.226 20.1117H187.389ZM190.537 17.4232H193.056C194.477 17.4232 195.591 17.1972 196.399 16.7451C197.222 16.2768 197.812 15.6148 198.167 14.759C198.522 13.887 198.7 12.8456 198.7 11.6345C198.7 10.4397 198.522 9.40626 198.167 8.53432C197.812 7.66238 197.222 6.99228 196.399 6.52402C195.591 6.05576 194.477 5.82163 193.056 5.82163H190.537V17.4232ZM203.218 20.1117V3.15738H214.287V5.70053H206.367V10.2782H213.561V12.7487H206.367V17.5686H214.287V20.1117H203.218Z" fill="white"/>
<path d="M121.95 39.1852V30.4547H125.068C125.743 30.4547 126.304 30.5797 126.749 30.8297C127.195 31.0758 127.529 31.4137 127.751 31.8434C127.974 32.2691 128.085 32.7496 128.085 33.2848C128.085 33.8199 127.974 34.3024 127.751 34.732C127.529 35.1578 127.193 35.4957 126.743 35.7457C126.298 35.9918 125.736 36.1149 125.056 36.1149H122.923V35.0016H124.933C125.366 35.0016 125.716 34.9274 125.982 34.7789C126.251 34.6305 126.447 34.4274 126.568 34.1695C126.693 33.9078 126.755 33.6129 126.755 33.2848C126.755 32.9527 126.693 32.6598 126.568 32.4059C126.447 32.1481 126.251 31.9469 125.982 31.8024C125.712 31.6578 125.361 31.5856 124.927 31.5856H123.269V39.1852H121.95ZM131.563 39.3199C130.95 39.3199 130.412 39.1793 129.952 38.8981C129.495 38.6168 129.139 38.2223 128.885 37.7145C128.635 37.2066 128.51 36.6168 128.51 35.9449C128.51 35.2652 128.635 34.6715 128.885 34.1637C129.139 33.652 129.495 33.2555 129.952 32.9742C130.412 32.693 130.95 32.5524 131.563 32.5524C132.18 32.5524 132.717 32.693 133.174 32.9742C133.631 33.2555 133.987 33.652 134.241 34.1637C134.495 34.6715 134.621 35.2652 134.621 35.9449C134.621 36.6168 134.495 37.2066 134.241 37.7145C133.987 38.2223 133.631 38.6168 133.174 38.8981C132.717 39.1793 132.18 39.3199 131.563 39.3199ZM131.563 38.2477C131.965 38.2477 132.297 38.1422 132.559 37.9313C132.821 37.7203 133.014 37.441 133.139 37.0934C133.268 36.7418 133.332 36.359 133.332 35.9449C133.332 35.5231 133.268 35.1363 133.139 34.7848C133.014 34.4332 132.821 34.152 132.559 33.941C132.297 33.7301 131.965 33.6246 131.563 33.6246C131.164 33.6246 130.834 33.7301 130.573 33.941C130.315 34.152 130.121 34.4332 129.993 34.7848C129.864 35.1363 129.799 35.5231 129.799 35.9449C129.799 36.359 129.864 36.7418 129.993 37.0934C130.121 37.441 130.315 37.7203 130.573 37.9313C130.834 38.1422 131.164 38.2477 131.563 38.2477ZM136.634 39.1852L134.712 32.6344H136.025L137.308 37.4449H137.378L138.662 32.6344H139.98L141.251 37.4274H141.316L142.593 32.6344H143.906L141.984 39.1852H140.689L139.353 34.4625H139.265L137.929 39.1852H136.634ZM147.12 39.3199C146.479 39.3199 145.924 39.1813 145.456 38.9039C144.987 38.6266 144.626 38.2359 144.372 37.732C144.122 37.2242 143.997 36.6324 143.997 35.9566C143.997 35.2848 144.12 34.693 144.366 34.1813C144.616 33.6695 144.965 33.2711 145.415 32.9859C145.868 32.6969 146.399 32.5524 147.008 32.5524C147.38 32.5524 147.739 32.6129 148.087 32.734C148.434 32.8551 148.747 33.0465 149.024 33.3082C149.301 33.5699 149.52 33.9098 149.68 34.3277C149.844 34.7457 149.926 35.2496 149.926 35.8395V36.2965H144.717V35.3414H149.27L148.678 35.6578C148.678 35.2555 148.616 34.9 148.491 34.5914C148.366 34.2828 148.178 34.0426 147.928 33.8707C147.682 33.6949 147.376 33.607 147.008 33.607C146.641 33.607 146.327 33.6949 146.065 33.8707C145.807 34.0465 145.61 34.2789 145.473 34.568C145.337 34.857 145.268 35.1734 145.268 35.5172V36.1676C145.268 36.6168 145.346 36.9977 145.503 37.3102C145.659 37.6227 145.876 37.8609 146.153 38.025C146.434 38.1891 146.76 38.2711 147.131 38.2711C147.374 38.2711 147.592 38.2359 147.788 38.1656C147.987 38.0953 148.159 37.9899 148.303 37.8492C148.448 37.7086 148.557 37.5348 148.631 37.3277L149.838 37.5563C149.741 37.9078 149.569 38.2164 149.323 38.482C149.077 38.7477 148.766 38.9547 148.391 39.1031C148.02 39.2477 147.596 39.3199 147.12 39.3199ZM150.697 39.1852V32.6344H151.922V33.6832H151.992C152.113 33.3316 152.324 33.0543 152.625 32.8512C152.929 32.6441 153.273 32.5406 153.656 32.5406C153.734 32.5406 153.826 32.5445 153.931 32.5524C154.041 32.5563 154.129 32.5621 154.195 32.5699V33.7887C154.144 33.7731 154.052 33.7574 153.92 33.7418C153.791 33.7262 153.66 33.7184 153.527 33.7184C153.226 33.7184 152.957 33.7828 152.718 33.9117C152.484 34.0367 152.299 34.2106 152.162 34.4332C152.029 34.652 151.963 34.9059 151.963 35.1949V39.1852H150.697ZM157.274 39.3199C156.634 39.3199 156.079 39.1813 155.61 38.9039C155.141 38.6266 154.78 38.2359 154.526 37.732C154.276 37.2242 154.151 36.6324 154.151 35.9566C154.151 35.2848 154.274 34.693 154.52 34.1813C154.77 33.6695 155.12 33.2711 155.569 32.9859C156.022 32.6969 156.554 32.5524 157.163 32.5524C157.534 32.5524 157.893 32.6129 158.241 32.734C158.589 32.8551 158.901 33.0465 159.179 33.3082C159.456 33.5699 159.675 33.9098 159.835 34.3277C159.999 34.7457 160.081 35.2496 160.081 35.8395V36.2965H154.872V35.3414H159.425L158.833 35.6578C158.833 35.2555 158.77 34.9 158.645 34.5914C158.52 34.2828 158.333 34.0426 158.083 33.8707C157.837 33.6949 157.53 33.607 157.163 33.607C156.796 33.607 156.481 33.6949 156.22 33.8707C155.962 34.0465 155.765 34.2789 155.628 34.568C155.491 34.857 155.423 35.1734 155.423 35.5172V36.1676C155.423 36.6168 155.501 36.9977 155.657 37.3102C155.813 37.6227 156.03 37.8609 156.307 38.025C156.589 38.1891 156.915 38.2711 157.286 38.2711C157.528 38.2711 157.747 38.2359 157.942 38.1656C158.141 38.0953 158.313 37.9899 158.458 37.8492C158.602 37.7086 158.712 37.5348 158.786 37.3277L159.993 37.5563C159.895 37.9078 159.723 38.2164 159.477 38.482C159.231 38.7477 158.921 38.9547 158.546 39.1031C158.175 39.2477 157.751 39.3199 157.274 39.3199ZM163.289 39.3141C162.758 39.3141 162.285 39.1793 161.871 38.9098C161.457 38.6363 161.133 38.2477 160.898 37.7438C160.664 37.2359 160.547 36.6305 160.547 35.9274C160.547 35.2164 160.666 34.609 160.904 34.1051C161.143 33.6012 161.469 33.2164 161.883 32.9508C162.297 32.6852 162.766 32.5524 163.289 32.5524C163.699 32.5524 164.027 32.6207 164.273 32.7574C164.523 32.8902 164.717 33.0465 164.853 33.2262C164.994 33.4059 165.102 33.5641 165.176 33.7008H165.252V30.4547H166.518V39.1852H165.281V38.1656H165.176C165.102 38.3024 164.992 38.4606 164.848 38.6402C164.703 38.8199 164.506 38.9781 164.256 39.1149C164.01 39.2477 163.687 39.3141 163.289 39.3141ZM163.564 38.2301C163.932 38.2301 164.242 38.1324 164.496 37.9371C164.75 37.7418 164.941 37.4703 165.07 37.1227C165.203 36.775 165.27 36.3727 165.27 35.9156C165.27 35.4586 165.205 35.0602 165.076 34.7203C164.947 34.3766 164.756 34.1109 164.502 33.9234C164.248 33.732 163.936 33.6363 163.564 33.6363C163.182 33.6363 162.863 33.7359 162.609 33.9352C162.355 34.1344 162.164 34.4059 162.035 34.7496C161.906 35.0934 161.842 35.482 161.842 35.9156C161.842 36.3531 161.906 36.7477 162.035 37.0992C162.164 37.4469 162.355 37.7223 162.609 37.9254C162.867 38.1285 163.186 38.2301 163.564 38.2301ZM173.403 39.3141C173.008 39.3141 172.684 39.2477 172.43 39.1149C172.18 38.9781 171.983 38.8199 171.838 38.6402C171.697 38.4606 171.588 38.3024 171.51 38.1656H171.405V39.1852H170.174V30.4547H171.44V33.7008H171.51C171.588 33.5641 171.696 33.4059 171.832 33.2262C171.973 33.0465 172.168 32.8902 172.418 32.7574C172.668 32.6207 172.994 32.5524 173.397 32.5524C173.924 32.5524 174.393 32.6852 174.803 32.9508C175.217 33.2164 175.543 33.6012 175.781 34.1051C176.02 34.609 176.139 35.2164 176.139 35.9274C176.139 36.6305 176.022 37.2359 175.787 37.7438C175.553 38.2477 175.229 38.6363 174.815 38.9098C174.405 39.1793 173.934 39.3141 173.403 39.3141ZM173.127 38.2301C173.506 38.2301 173.822 38.1285 174.076 37.9254C174.33 37.7223 174.522 37.4469 174.651 37.0992C174.783 36.7477 174.85 36.3531 174.85 35.9156C174.85 35.482 174.785 35.0934 174.656 34.7496C174.528 34.4059 174.336 34.1344 174.082 33.9352C173.828 33.7359 173.51 33.6363 173.127 33.6363C172.756 33.6363 172.444 33.732 172.19 33.9234C171.936 34.1109 171.742 34.3766 171.61 34.7203C171.481 35.0602 171.416 35.4586 171.416 35.9156C171.416 36.3727 171.483 36.775 171.615 37.1227C171.748 37.4703 171.942 37.7418 172.196 37.9371C172.453 38.1324 172.764 38.2301 173.127 38.2301ZM177.519 41.6344C177.327 41.6383 177.154 41.6246 176.997 41.5934C176.845 41.566 176.728 41.5328 176.646 41.4938L176.956 40.4566L177.044 40.4801C177.368 40.5621 177.642 40.5563 177.865 40.4625C178.091 40.3727 178.281 40.1207 178.433 39.7066L178.591 39.2731L176.201 32.6344H177.566L179.218 37.7203H179.288L180.947 32.6344H182.312L179.617 40.0524C179.492 40.3961 179.333 40.6852 179.142 40.9195C178.951 41.1578 178.72 41.3356 178.451 41.4527C178.185 41.5738 177.874 41.6344 177.519 41.6344ZM185.541 39.1852V30.4547H188.746C189.363 30.4547 189.875 30.5563 190.281 30.7594C190.687 30.9625 190.99 31.2379 191.189 31.5856C191.392 31.9293 191.494 32.316 191.494 32.7457C191.494 33.109 191.425 33.4156 191.289 33.6656C191.156 33.9156 190.978 34.1149 190.755 34.2633C190.533 34.4117 190.287 34.5211 190.017 34.5914V34.6734C190.31 34.6891 190.595 34.7828 190.873 34.9547C191.15 35.1266 191.378 35.3707 191.558 35.6871C191.742 35.9996 191.834 36.3824 191.834 36.8356C191.834 37.2809 191.728 37.6813 191.517 38.0367C191.31 38.3883 190.99 38.6676 190.556 38.8746C190.123 39.0816 189.566 39.1852 188.886 39.1852H185.541ZM186.859 38.0602H188.757C189.39 38.0602 189.843 37.9371 190.117 37.691C190.39 37.4449 190.527 37.1383 190.527 36.7711C190.527 36.4938 190.457 36.2418 190.316 36.0152C190.179 35.7848 189.982 35.6012 189.724 35.4645C189.466 35.3277 189.162 35.2594 188.81 35.2594H186.859V38.0602ZM186.859 34.234H188.628C188.921 34.234 189.187 34.1774 189.425 34.0641C189.664 33.9508 189.851 33.7906 189.988 33.5836C190.128 33.3727 190.199 33.1285 190.199 32.8512C190.199 32.4918 190.072 32.191 189.818 31.9488C189.568 31.7027 189.183 31.5797 188.664 31.5797H186.859V34.234ZM192.674 39.1852V32.6344H193.899V33.6832H193.969C194.091 33.3316 194.301 33.0543 194.602 32.8512C194.907 32.6441 195.251 32.5406 195.633 32.5406C195.712 32.5406 195.803 32.5445 195.909 32.5524C196.018 32.5563 196.106 32.5621 196.173 32.5699V33.7887C196.122 33.7731 196.03 33.7574 195.897 33.7418C195.768 33.7262 195.637 33.7184 195.505 33.7184C195.204 33.7184 194.934 33.7828 194.696 33.9117C194.462 34.0367 194.276 34.2106 194.139 34.4332C194.007 34.652 193.94 34.9059 193.94 35.1949V39.1852H192.674ZM199.252 39.3199C198.611 39.3199 198.056 39.1813 197.588 38.9039C197.119 38.6266 196.758 38.2359 196.504 37.732C196.254 37.2242 196.129 36.6324 196.129 35.9566C196.129 35.2848 196.252 34.693 196.498 34.1813C196.748 33.6695 197.097 33.2711 197.547 32.9859C198 32.6969 198.531 32.5524 199.14 32.5524C199.512 32.5524 199.871 32.6129 200.219 32.734C200.566 32.8551 200.879 33.0465 201.156 33.3082C201.433 33.5699 201.652 33.9098 201.812 34.3277C201.976 34.7457 202.058 35.2496 202.058 35.8395V36.2965H196.849V35.3414H201.402L200.81 35.6578C200.81 35.2555 200.748 34.9 200.623 34.5914C200.498 34.2828 200.31 34.0426 200.06 33.8707C199.814 33.6949 199.508 33.607 199.14 33.607C198.773 33.607 198.459 33.6949 198.197 33.8707C197.939 34.0465 197.742 34.2789 197.605 34.568C197.469 34.857 197.4 35.1734 197.4 35.5172V36.1676C197.4 36.6168 197.478 36.9977 197.635 37.3102C197.791 37.6227 198.008 37.8609 198.285 38.025C198.566 38.1891 198.892 38.2711 199.263 38.2711C199.506 38.2711 199.724 38.2359 199.92 38.1656C200.119 38.0953 200.291 37.9899 200.435 37.8492C200.58 37.7086 200.689 37.5348 200.763 37.3277L201.971 37.5563C201.873 37.9078 201.701 38.2164 201.455 38.482C201.209 38.7477 200.898 38.9547 200.523 39.1031C200.152 39.2477 199.728 39.3199 199.252 39.3199ZM205.647 39.3199C205.007 39.3199 204.452 39.1813 203.983 38.9039C203.515 38.6266 203.153 38.2359 202.899 37.732C202.649 37.2242 202.524 36.6324 202.524 35.9566C202.524 35.2848 202.647 34.693 202.893 34.1813C203.143 33.6695 203.493 33.2711 203.942 32.9859C204.395 32.6969 204.927 32.5524 205.536 32.5524C205.907 32.5524 206.267 32.6129 206.614 32.734C206.962 32.8551 207.274 33.0465 207.552 33.3082C207.829 33.5699 208.048 33.9098 208.208 34.3277C208.372 34.7457 208.454 35.2496 208.454 35.8395V36.2965H203.245V35.3414H207.798L207.206 35.6578C207.206 35.2555 207.143 34.9 207.018 34.5914C206.893 34.2828 206.706 34.0426 206.456 33.8707C206.21 33.6949 205.903 33.607 205.536 33.607C205.169 33.607 204.854 33.6949 204.593 33.8707C204.335 34.0465 204.138 34.2789 204.001 34.568C203.864 34.857 203.796 35.1734 203.796 35.5172V36.1676C203.796 36.6168 203.874 36.9977 204.03 37.3102C204.186 37.6227 204.403 37.8609 204.681 38.025C204.962 38.1891 205.288 38.2711 205.659 38.2711C205.901 38.2711 206.12 38.2359 206.315 38.1656C206.515 38.0953 206.686 37.9899 206.831 37.8492C206.976 37.7086 207.085 37.5348 207.159 37.3277L208.366 37.5563C208.268 37.9078 208.097 38.2164 207.851 38.482C207.604 38.7477 207.294 38.9547 206.919 39.1031C206.548 39.2477 206.124 39.3199 205.647 39.3199ZM209.084 39.1852V38.318L212.629 33.8063V33.7418H209.201V32.6344H214.217V33.5719L210.807 38.0133V38.0777H214.334V39.1852H209.084ZM220.791 39.3258C220.139 39.3258 219.573 39.2242 219.092 39.0211C218.616 38.8141 218.242 38.5191 217.973 38.1363C217.703 37.7535 217.553 37.2984 217.522 36.7711H218.846C218.873 37.0875 218.975 37.3512 219.151 37.5621C219.33 37.7691 219.563 37.9234 219.848 38.025C220.133 38.1266 220.446 38.1774 220.785 38.1774C221.157 38.1774 221.489 38.1188 221.782 38.0016C222.075 37.8844 222.303 37.7203 222.467 37.5094C222.635 37.2945 222.719 37.0445 222.719 36.7594C222.719 36.5016 222.645 36.2906 222.496 36.1266C222.352 35.9625 222.155 35.8277 221.905 35.7223C221.655 35.6129 221.373 35.5172 221.061 35.4352L220.035 35.1539C219.332 34.9664 218.778 34.6871 218.371 34.316C217.965 33.941 217.762 33.4508 217.762 32.8453C217.762 32.3414 217.897 31.902 218.166 31.527C218.44 31.152 218.809 30.8609 219.274 30.6539C219.742 30.443 220.268 30.3375 220.85 30.3375C221.444 30.3375 221.965 30.443 222.414 30.6539C222.867 30.8609 223.225 31.1461 223.487 31.5094C223.752 31.8688 223.891 32.2809 223.903 32.7457H222.625C222.578 32.3434 222.391 32.0309 222.063 31.8082C221.739 31.5856 221.325 31.4742 220.821 31.4742C220.469 31.4742 220.16 31.5309 219.895 31.6441C219.633 31.7535 219.43 31.9059 219.285 32.1012C219.145 32.2965 219.075 32.5211 219.075 32.775C219.075 33.0484 219.158 33.2711 219.326 33.443C219.498 33.6149 219.705 33.7516 219.948 33.8531C220.194 33.9508 220.43 34.0309 220.657 34.0934L221.506 34.3219C221.783 34.3922 222.069 34.4859 222.362 34.6031C222.655 34.7203 222.926 34.8746 223.176 35.066C223.43 35.2535 223.633 35.4879 223.785 35.7691C223.942 36.0465 224.02 36.3824 224.02 36.777C224.02 37.2652 223.893 37.7027 223.639 38.0895C223.385 38.4723 223.018 38.775 222.537 38.9977C222.057 39.2164 221.475 39.3258 220.791 39.3258ZM227.796 39.1852H225.64V38.0309H227.72C228.384 38.0309 228.937 37.9078 229.378 37.6617C229.82 37.4117 230.15 37.0465 230.369 36.566C230.587 36.0816 230.697 35.4957 230.697 34.8082C230.697 34.1246 230.587 33.5445 230.369 33.068C230.154 32.5914 229.831 32.2301 229.402 31.984C228.972 31.734 228.439 31.609 227.802 31.609H225.593V30.4547H227.884C228.74 30.4547 229.474 30.6285 230.087 30.9762C230.701 31.3238 231.171 31.8238 231.499 32.4762C231.828 33.1246 231.992 33.902 231.992 34.8082C231.992 35.7184 231.826 36.4996 231.494 37.152C231.165 37.8043 230.689 38.3063 230.064 38.6578C229.439 39.0094 228.683 39.1852 227.796 39.1852ZM226.285 30.4547V39.1852H224.966V30.4547H226.285ZM233.002 39.1852V30.4547H234.321V34.6266H234.426L238.094 30.4547H239.741L236.225 34.3805L239.758 39.1852H238.17L235.346 35.2887L234.321 36.4781V39.1852H233.002Z" fill="white"/>
<defs>
<clipPath id="clip0_4987_34591">
<rect width="42.096" height="42.7216" fill="white" transform="translate(71.1064 0.287628)"/>
</clipPath>
</defs>
</svg>
